<?xml version="1.0" encoding="UTF-8" standalone="no"?>
<!-- Created with Inkscape (http://www.inkscape.org/) -->

<svg
   width="26.458338mm"
   height="34.395824mm"
   viewBox="0 0 26.458338 34.395824"
   version="1.1"
   id="svg1"
   inkscape:version="1.3.2 (091e20ef0f, 2023-11-25, custom)"
   sodipodi:docname="murder-marker.svg"
   xmlns:inkscape="http://www.inkscape.org/namespaces/inkscape"
   xmlns:sodipodi="http://sodipodi.sourceforge.net/DTD/sodipodi-0.dtd"
   xmlns="http://www.w3.org/2000/svg"
   xmlns:svg="http://www.w3.org/2000/svg">
  <sodipodi:namedview
     id="namedview1"
     pagecolor="#ffffff"
     bordercolor="#000000"
     borderopacity="0.25"
     inkscape:showpageshadow="2"
     inkscape:pageopacity="0.0"
     inkscape:pagecheckerboard="0"
     inkscape:deskcolor="#d1d1d1"
     inkscape:document-units="mm"
     inkscape:zoom="0.72070006"
     inkscape:cx="397.53015"
     inkscape:cy="561.25984"
     inkscape:window-width="1920"
     inkscape:window-height="1013"
     inkscape:window-x="0"
     inkscape:window-y="0"
     inkscape:window-maximized="1"
     inkscape:current-layer="layer1" />
  <defs
     id="defs1">
    <inkscape:path-effect
       effect="bspline"
       id="path-effect5"
       is_visible="true"
       lpeversion="1.3"
       weight="33.333333"
       steps="2"
       helper_size="0"
       apply_no_weight="true"
       apply_with_weight="true"
       only_selected="false"
       uniform="false" />
  </defs>
  <g
     inkscape:label="Ebene 1"
     inkscape:groupmode="layer"
     id="layer1"
     transform="translate(-55.360505,-62.721525)">
    <path
       id="path2"
       style="fill:#5491f5;fill-opacity:1;stroke-width:0.148693"
       d="m 81.81884,75.622212 c 0,7.109294 -13.188312,21.495142 -13.188312,21.495142 0,0 -13.224738,-14.306311 -13.269763,-21.415468 -0.04503,-7.109157 5.816355,-12.913935 13.10636,-12.979793 7.290002,-0.06586 13.260656,5.632026 13.350705,12.740776"
       sodipodi:nodetypes="ccssc"
       inkscape:export-filename="path2.svg"
       inkscape:export-xdpi="96"
       inkscape:export-ydpi="96" />
    <path
       style="fill:#5491f5;fill-opacity:1;stroke:none;stroke-width:0.129849"
       id="path3"
       sodipodi:type="arc"
       sodipodi:cx="68.589676"
       sodipodi:cy="75.536705"
       sodipodi:rx="6.6145816"
       sodipodi:ry="6.6145816"
       sodipodi:start="0"
       sodipodi:end="6.2708334"
       sodipodi:open="true"
       sodipodi:arc-type="arc"
       d="m 75.204257,75.536705 a 6.6145816,6.6145816 0 0 1 -6.594155,6.61455 6.6145816,6.6145816 0 0 1 -6.634882,-6.573699 6.6145816,6.6145816 0 0 1 6.55318,-6.655149 6.6145816,6.6145816 0 0 1 6.675353,6.532597" />
    <g
       id="g7"
       transform="matrix(0.08024053,0,0,0.08024053,60.020428,59.667097)">
      <path
         id="path1"
         d="m 205.15261,103.93624 c -5.57678,1.51676 -7.66492,5.03578 -9.14208,9.6082 -2.0037,6.20228 -2.9055,14.32878 -4.02249,21.12946 -1.11699,6.80068 -2.44895,12.27518 -5.20795,18.31413 -2.759,6.03894 -6.94478,12.64207 -12.66796,18.58233 -5.72319,5.94025 -12.98368,11.21725 -16.94677,20.16414 -3.35485,7.57373 -4.32235,17.77705 0.63458,27.90476 26.63307,-33.78852 38.31829,-61.97354 43.32811,-81.51183 3.89037,-15.03097 4.39592,-26.52628 4.02456,-34.19119 z"
         style="fill:#dc0000;fill-opacity:1;stroke-width:0.41329" />
      <path
         id="path2-9"
         d="m 201.78899,92.004151 c -0.28931,0.08266 -0.57833,0.24812 -0.82631,0.496094 L 83.587941,209.87448 c -0.16532,0.16531 -0.16485,0.16541 -0.16485,0.33073 -0.16532,0 -0.33073,0.16536 -0.33073,0.16536 L 11.67553,281.78689 c -2.4797402,2.47974 -3.8023522,5.62083 -3.8023522,9.09246 0,3.47164 1.322564,6.61273 3.6369872,9.09247 2.47974,2.31443 5.786148,3.63699 9.092468,3.63699 3.30632,0 6.28195,-1.15715 8.596374,-3.30626 0.165316,0 0.496143,-0.16541 0.661459,-0.33073 l 70.755374,-70.75537 24.46672,24.46672 c 0.33063,0.33064 0.82641,0.4961 1.15703,0.4961 0.33064,0 0.82693,-0.16546 1.15756,-0.4961 11.86088,-11.86088 21.88191,-23.23374 30.40279,-34.04391 -4.95693,-10.12771 -3.98943,-20.33103 -0.63458,-27.90476 3.96309,-8.94689 11.22358,-14.22389 16.94677,-20.16414 5.72318,-5.94026 9.90896,-12.54339 12.66796,-18.58233 2.759,-6.03895 4.09096,-11.51345 5.20795,-18.31413 1.11699,-6.80068 2.01879,-14.92718 4.02249,-21.12946 1.47716,-4.57242 3.5653,-8.09144 9.14208,-9.6082 -0.32298,-6.666325 -1.30287,-10.46746 -1.37976,-10.775054 -0.16532,-0.495948 -0.66109,-0.991719 -1.15704,-1.157035 -0.24797,-0.08266 -0.53752,-0.08266 -0.82682,0 z"
         style="fill:#ffffff;fill-opacity:1;stroke-width:0.41329" />
      <path
         id="path4-2"
         style="fill:#dc0000;stroke-width:0.365721"
         d="m 201.21279,170.87995 c 0,1.93187 -1.36682,3.49963 -3.05627,3.5056 -1.68946,0.006 -3.06472,-1.55211 -3.07515,-3.48395 -0.0105,-1.93184 3.03728,-5.33706 3.03728,-5.33706 0,0 3.07304,3.34038 3.09391,5.27211"
         sodipodi:nodetypes="csscc" />
      <path
         id="path4-3"
         style="fill:#dc0000;stroke-width:0.469366"
         d="m 195.86617,188.03195 c 0,3.18201 -1.36681,5.76429 -3.05627,5.77411 -1.68946,0.01 -3.06471,-2.55649 -3.07515,-5.73844 -0.0104,-3.18195 3.03729,-8.79073 3.03729,-8.79073 0,0 3.07303,5.50198 3.0939,8.68374"
         sodipodi:nodetypes="csscc" />
      <path
         style="fill:#dc0000;fill-opacity:1;stroke-width:0.999294"
         d="m 494.3647,29.608162 c 1.17444,20.9751 2.34887,41.950198 0.95734,52.939805 -1.39153,10.989607 -5.34888,11.993679 -7.34704,22.178013 -1.99816,10.18433 -2.03707,29.54814 -3.15744,34.28867 -1.12038,4.74052 -3.32214,-5.14223 -5.24974,-7.80595 -1.92759,-2.66373 -3.58091,1.89158 -4.83846,11.42278 -1.25755,9.5312 -2.11928,24.03762 -4.19763,31.7668 -2.07836,7.72919 -5.3732,8.6808 -8.45226,12.20962 -3.07905,3.52882 -5.94215,9.63459 -7.26128,15.82173 -1.31914,6.18714 -1.09428,12.45529 -2.53236,14.91083 -1.43809,2.45555 -4.53901,1.09842 -6.8014,-0.71247 -2.26239,-1.8109 -3.68612,-4.07543 -5.03784,-0.35958 -1.35172,3.71585 -2.63134,13.41175 -4.74109,20.80662 -2.10974,7.39488 -5.04946,12.48832 -9.17344,15.45507 -4.12399,2.96674 -9.43198,3.80666 -12.60901,11.20693 -3.17702,7.40026 -4.22295,21.36029 -6.67,27.4921 -2.44705,6.13181 -6.29505,4.43517 -8.99553,1.67351 -2.70048,-2.76166 -4.2533,-6.58815 -5.4248,-4.44063 -1.17149,2.14751 -1.9616,10.26879 -4.21886,13.46274 -2.25725,3.19395 -5.98148,1.46047 -7.6475,-4.24455 -1.66601,-5.70503 -1.27375,-15.38119 5.08527,-31.0994 6.35902,-15.7182 18.68431,-37.47739 31.66336,-57.16418 12.97906,-19.68679 26.61108,-37.30003 35.01473,-54.85854 8.40366,-17.5585 11.57855,-35.06122 17.64637,-55.877269 6.06781,-20.816047 15.02812,-44.944106 23.98861,-69.072649 z"
         id="path5-6"
         inkscape:path-effect="#path-effect5"
         inkscape:original-d="m 494.3647,29.608162 c 0,0 2.34887,41.950198 3.52331,62.925301 -3.9575,1.004109 -7.91485,2.008179 -11.87227,3.012274 -0.0389,19.364573 -0.0778,38.728383 -0.11671,58.092573 -2.20185,-9.88314 -4.40361,-19.76589 -6.60542,-29.64883 -1.65338,4.55549 -3.30669,9.1108 -4.96004,13.66619 -0.86177,14.50701 -1.72349,29.01343 -2.58523,43.52015 -3.29497,0.95165 -6.58981,1.90326 -9.88472,2.85489 -2.8632,6.10601 -5.72629,12.21178 -8.58944,18.31766 0.22487,6.2684 0.44974,12.53655 0.6746,18.80482 -3.10104,-1.35718 -6.20196,-2.71431 -9.30295,-4.07147 -1.42379,-2.26463 -2.84753,-4.52916 -4.27129,-6.79375 -1.27967,9.69629 -2.5593,19.39219 -3.83894,29.08828 -2.93984,5.09366 -5.87955,10.1871 -8.81933,15.28064 -5.3082,0.83995 -10.61619,1.67987 -15.92428,2.51981 -1.04597,13.96059 -2.09189,27.92062 -3.13783,41.88094 -3.84816,-1.6967 -7.69616,-3.39334 -11.54424,-5.09001 -1.55288,-3.82665 -3.1057,-7.65314 -4.65855,-11.4797 -0.79014,8.12159 -1.58026,16.24287 -2.37038,24.36431 -3.72438,-1.73354 -7.44861,-3.46702 -11.17291,-5.20052 0.39227,-9.67655 0.78453,-19.35271 1.17679,-29.02906 12.32578,-21.76006 24.65107,-43.51925 36.97661,-65.27889 13.63257,-17.61394 27.26459,-35.22718 40.89688,-52.84077 3.17503,-17.50342 6.34992,-35.00614 9.52487,-52.50921 8.96067,-24.129026 26.88147,-72.385628 26.88147,-72.385628 z"
         transform="matrix(0.41329038,0,0,0.41329038,0.74286384,91.942139)" />
    </g>
  </g>
</svg>
